<svg xmlns="http://www.w3.org/2000/svg" width="115.358" height="115.357" viewBox="0 0 115.358 115.357">
  <path id="icons8_diploma" d="M3.605,0A4.436,4.436,0,0,0,0,4.437V97.61a4.445,4.445,0,0,0,4.437,4.437H39.932V93.173H8.874V8.874h97.61v84.3H75.426v8.874h35.494a4.445,4.445,0,0,0,4.437-4.437V4.437A4.445,4.445,0,0,0,110.921,0H3.605ZM22.184,22.184v13.31H93.173V22.184Zm0,22.184v8.874H93.173V44.368ZM57.679,60.313A4.4,4.4,0,0,0,53.658,63.5h-.416a3.989,3.989,0,0,0-4.853.416A4.968,4.968,0,0,0,47,68.771a.381.381,0,0,1-.416.416,5,5,0,0,0-3.6,3.6A3.891,3.891,0,0,0,45.2,77.228v.832a4.726,4.726,0,0,0-.416,4.853,5.455,5.455,0,0,0,4.437,2.218c.45,0,.52.555.97.555a4.107,4.107,0,0,0,2.635,3.882c1.768.451,3.553.087,4.437-1.248H58.1a4.142,4.142,0,0,0,3.189,1.248,1.422,1.422,0,0,0,1.248-.416,3.912,3.912,0,0,0,2.634-4.021c.451,0,.52-.416.971-.416A3.892,3.892,0,0,0,70.574,82.5a3.99,3.99,0,0,0-.416-4.853v-.832c1.335-.451,2.218-2.253,2.218-4.021a5,5,0,0,0-3.6-3.6.381.381,0,0,0-.416-.416,4.97,4.97,0,0,0-1.386-4.853,3.99,3.99,0,0,0-4.853-.416H61.7A4.4,4.4,0,0,0,57.679,60.313Zm0,8.042a7.071,7.071,0,1,1-7.071,7.071A6.97,6.97,0,0,1,57.679,68.355ZM44.368,87.9v27.453l13.31-8.874,13.31,8.874V87.9a3.271,3.271,0,0,1-1.8.832,8,8,0,0,1-4.853,4.437,6.266,6.266,0,0,1-3.05.416,8.509,8.509,0,0,1-3.6-.832,10.476,10.476,0,0,1-3.6.832,8.14,8.14,0,0,1-3.05-.416,8,8,0,0,1-4.853-4.437A2.322,2.322,0,0,1,44.368,87.9Z" transform="translate(0)" fill="#fff"/>
</svg>
