<svg xmlns="http://www.w3.org/2000/svg" width="118.817" height="113.16" viewBox="0 0 118.817 113.16">
  <path id="icons8_syllabus_1" d="M53.922,1A17.035,17.035,0,0,0,37.965,12.316H14.316A11.277,11.277,0,0,0,3,23.632v79.212A11.313,11.313,0,0,0,14.316,114.16H48.264v-7.526l-6.675-3.79H14.316V23.632H53.922a5.658,5.658,0,1,1,5.658-5.658,5.675,5.675,0,0,1-5.658,5.658H93.528v43.23l11.316,4.52V23.632A11.313,11.313,0,0,0,93.528,12.316H69.879A17.035,17.035,0,0,0,53.922,1Zm28.29,73.554L42.606,90.4l16.974,9.614V114.16h45.264V100.015L121.817,90.4Z" transform="translate(-3 -1)" fill="#fff"/>
</svg>
