<svg xmlns="http://www.w3.org/2000/svg" width="106.25" height="113.622" viewBox="0 0 106.25 113.622">
  <path id="icons8_graduation_scroll" d="M94.3,1.99a2.47,2.47,0,0,0-2.1,1.384,137.531,137.531,0,0,1-21.346,31,27.1,27.1,0,0,0-9.892-4.49A160.226,160.226,0,0,0,76.084,9.4a17.162,17.162,0,0,1,5.233.839c.37.123.767.271,1.162.444.864-1.408,1.7-2.84,2.494-4.3A13.183,13.183,0,0,0,82.9,5.573a23.277,23.277,0,0,0-8.445-1.085,2.453,2.453,0,0,0-1.924,1.235C68.052,13.392,61.782,21.456,55,29.187c-.036,0-.07,0-.106,0v.125C36.157,50.65,13.471,69.349,13.164,69.6c-.018.015-.026.038-.043.053a22.928,22.928,0,0,0-5.035,5.267,29.381,29.381,0,0,0-5.04,18.636c.922,13.039,12.143,22.151,25.181,22.05a23.847,23.847,0,0,0,18.236-8.363l.1.067S55.8,94.207,68.68,78.467L85.392,92.791a2.47,2.47,0,0,0,4.075-1.876V80.594l10.36-2.074a2.47,2.47,0,0,0,1.124-4.3L84.48,60.106A235.483,235.483,0,0,1,106.69,38.49a2.47,2.47,0,0,0,.665-.873,21.182,21.182,0,0,0,1.867-8.86c0-11.377-5.575-20.832-12.993-25.981A2.47,2.47,0,0,0,94.3,1.99Zm.931,6.226a27.152,27.152,0,0,1,9.048,20.541,16.051,16.051,0,0,1-1.36,6.521,235.083,235.083,0,0,0-19.6,18.862A34.443,34.443,0,0,0,74.6,37.588,142.2,142.2,0,0,0,95.235,8.216ZM57.173,34.236C68.383,35.3,77.488,44.255,79.32,58.476c-2.795,3.08-5.534,6.174-8.151,9.236C68.634,54.822,60.415,44.994,49.755,42.29,52.247,39.688,54.728,36.982,57.173,34.236Zm-11.6,12.337a20.2,20.2,0,0,1,9.091,3.144C46.815,57.106,41,61.828,41,61.828a2.47,2.47,0,0,0-.188,3.68c1.94,1.917,3.917,5.959,5.214,10.365a48.271,48.271,0,0,1,2,12.573,25.921,25.921,0,0,1-2.817,12.3c-.94,1.312-2.706,3.743-2.706,3.743l.082.058a19.016,19.016,0,0,1-14.4,6.125c-10.772.083-19.476-7.035-20.213-17.459a24.7,24.7,0,0,1,4.167-15.472C15,73.617,18.868,71.16,22.8,71.16a10.761,10.761,0,0,1,9.183,4.5,17.584,17.584,0,0,1,3.164,10.311c0,4.532-1.127,7.7-2.576,9.636a5.95,5.95,0,0,1-4.833,2.711,7.3,7.3,0,0,1-4.973-2.344,7.611,7.611,0,0,1-1.973-4.37l3.178-3.222,5.768-5.744a10.1,10.1,0,0,0-2.493-4.495L20.885,84.5l-.015-.014-4.625,4.7a2.47,2.47,0,0,0-.709,1.731,12.345,12.345,0,0,0,3.694,8.517,12.013,12.013,0,0,0,8.5,3.829,11.092,11.092,0,0,0,8.792-4.7c2.241-3,3.555-7.243,3.555-12.588A22.2,22.2,0,0,0,35.928,72.7a16.044,16.044,0,0,0-11.344-6.376C30.058,61.5,37.6,54.62,45.569,46.573Zm12.983,6.27c4.637,4.629,7.828,11.519,8.532,19.789C61.653,79.167,56.8,85.28,52.885,90.414c.038-.652.082-1.3.082-1.968a52.054,52.054,0,0,0-2.2-13.972,32.9,32.9,0,0,0-4.977-10.307C46.969,63.207,51.426,59.59,58.552,52.843ZM81.172,63.777,93.885,74.672l-7.37,1.476a2.47,2.47,0,0,0-1.987,2.421v6.979L71.97,74.778c0-.088-.016-.172-.019-.26C74.919,70.963,77.938,67.4,81.172,63.777Z" transform="translate(-2.973 -1.987)" fill="#fff"/>
</svg>
