<svg xmlns="http://www.w3.org/2000/svg" width="121.406" height="141.331" viewBox="0 0 121.406 141.331">
  <path id="icons8_syllabus" d="M61.694,4a11.089,11.089,0,0,0-10.827,9.339H20.6a5.632,5.632,0,0,0-5.6,5.6v104.6a5.632,5.632,0,0,0,5.6,5.6H69.166v-3.736H20.6a1.838,1.838,0,0,1-1.868-1.868V18.942A1.838,1.838,0,0,1,20.6,17.074H39.281v5.6a5.632,5.632,0,0,0,5.6,5.6H78.5a5.632,5.632,0,0,0,5.6-5.6v-5.6h18.678a1.87,1.87,0,0,1,1.868,1.868v70.52l3.736,1.463V18.942a5.61,5.61,0,0,0-5.6-5.6H72.522A11.089,11.089,0,0,0,61.694,4Zm0,3.736a7.444,7.444,0,0,1,7.471,7.471v1.868H80.372v5.6A1.838,1.838,0,0,1,78.5,24.546H44.884a1.838,1.838,0,0,1-1.868-1.868v-5.6H54.223V15.207A7.444,7.444,0,0,1,61.694,7.736Zm0,5.6a1.868,1.868,0,1,0,1.868,1.868A1.868,1.868,0,0,0,61.694,13.339ZM28.074,20.81a1.868,1.868,0,1,0,1.868,1.868A1.868,1.868,0,0,0,28.074,20.81Zm0,7.471a1.868,1.868,0,1,0,1.868,1.868A1.868,1.868,0,0,0,28.074,28.281Zm0,7.471a1.868,1.868,0,1,0,1.868,1.868A1.868,1.868,0,0,0,28.074,35.752Zm0,7.471a1.868,1.868,0,1,0,1.868,1.868A1.868,1.868,0,0,0,28.074,43.223Zm13.074,0a1.868,1.868,0,1,0,0,3.736H82.24a1.868,1.868,0,1,0,0-3.736ZM28.074,50.694a1.868,1.868,0,1,0,1.868,1.868A1.868,1.868,0,0,0,28.074,50.694Zm22.413,0a1.868,1.868,0,1,0,0,3.736H82.24a1.868,1.868,0,1,0,0-3.736ZM28.074,58.166a1.868,1.868,0,1,0,1.868,1.868A1.868,1.868,0,0,0,28.074,58.166Zm22.413,0a1.868,1.868,0,1,0,0,3.736H82.24a1.868,1.868,0,1,0,0-3.736ZM28.074,65.637A1.868,1.868,0,1,0,29.942,67.5,1.868,1.868,0,0,0,28.074,65.637Zm0,7.471a1.868,1.868,0,1,0,1.868,1.868A1.868,1.868,0,0,0,28.074,73.108Zm13.074,0a1.868,1.868,0,1,0,0,3.736H82.24a1.868,1.868,0,1,0,0-3.736ZM28.074,80.579a1.868,1.868,0,1,0,1.868,1.868A1.868,1.868,0,0,0,28.074,80.579Zm22.413,0a1.868,1.868,0,1,0,0,3.736H82.24a1.868,1.868,0,1,0,0-3.736ZM28.074,88.05a1.868,1.868,0,1,0,1.868,1.868A1.868,1.868,0,0,0,28.074,88.05Zm67.24,1.868a5.026,5.026,0,0,0-1.831.346L56.35,104.751a3.353,3.353,0,0,0-2.127,3.112v1.868h.58a3.328,3.328,0,0,0,1.547,1.244L72.9,117.431v9.751h.011c0,.032-.011.059-.011.091a2.926,2.926,0,0,0,1.043,2.149,6.043,6.043,0,0,0,1.7,1.021,22.741,22.741,0,0,0,4.808,1.309,86.953,86.953,0,0,0,14.862,1.124,86.954,86.954,0,0,0,14.862-1.124,22.746,22.746,0,0,0,4.808-1.309,6.045,6.045,0,0,0,1.7-1.021,2.926,2.926,0,0,0,1.043-2.149c0-.031-.01-.057-.011-.088h.011v-9.755l7.471-2.915v18.878a3.717,3.717,0,0,0-1.868,3.218c0,2.064,3.736,8.719,3.736,8.719s3.736-6.655,3.736-8.719a3.717,3.717,0,0,0-1.868-3.218V113.057l5.344-2.083a3.333,3.333,0,0,0,1.547-1.244h.58v-1.868a3.353,3.353,0,0,0-2.127-3.112L97.146,90.264A5.026,5.026,0,0,0,95.314,89.918Zm0,3.736a1.29,1.29,0,0,1,.471.088l36.192,14.121-14.3,5.578a3.8,3.8,0,0,0-2.338-3.2,54.742,54.742,0,0,0-20.02-3.517,54.789,54.789,0,0,0-20.02,3.517v0a3.807,3.807,0,0,0-2.338,3.2l-14.3-5.578L94.844,93.741A1.29,1.29,0,0,1,95.314,93.653Zm-67.24,1.868a1.868,1.868,0,1,0,1.868,1.868A1.868,1.868,0,0,0,28.074,95.521Zm0,7.471a1.868,1.868,0,1,0,1.868,1.868A1.868,1.868,0,0,0,28.074,102.992Zm0,7.471a1.868,1.868,0,1,0,1.868,1.868A1.868,1.868,0,0,0,28.074,110.463Zm67.24,0a51.1,51.1,0,0,1,18.627,3.247h0v0c.036.015.047.025.047.077v9.977a25.879,25.879,0,0,0-3.816-.974,86.954,86.954,0,0,0-14.862-1.124,86.954,86.954,0,0,0-14.862,1.124,25.879,25.879,0,0,0-3.816.974V113.79c0-.052.011-.066.047-.08A51.152,51.152,0,0,1,95.314,110.463Zm-67.24,7.471a1.868,1.868,0,1,0,1.868,1.868A1.868,1.868,0,0,0,28.074,117.934Zm67.24,7.471a84.078,84.078,0,0,1,14.194,1.065,19.717,19.717,0,0,1,3.013.8,19.719,19.719,0,0,1-3.013.8,84.079,84.079,0,0,1-14.194,1.065,84.079,84.079,0,0,1-14.194-1.065,19.719,19.719,0,0,1-3.013-.8,19.717,19.717,0,0,1,3.013-.8A84.078,84.078,0,0,1,95.314,125.406Z" transform="translate(-15 -4)" fill="#fff"/>
</svg>
