<svg xmlns="http://www.w3.org/2000/svg" width="120.481" height="128.843" viewBox="0 0 120.481 128.843">
  <path id="icons8_certificate" d="M64.084,3a15.231,15.231,0,0,0-8.827,2.942l-8.208,5.73L37.6,12.911h-.155l-.155.155a16.82,16.82,0,0,0-12.7,12.7l-.155.155v.155l-1.239,9.6-5.73,7.433-.155.155v.155a16.212,16.212,0,0,0,.155,17.964l5.885,8.207L24.9,78.107,8.954,102.42l-5.11,7.588H27.537l5.73,13.318,3.562,8.517,5.111-7.743L57.58,100.561a16.339,16.339,0,0,0,13.008,0L86.229,124.1l5.11,7.743,3.562-8.517,5.73-13.318h23.694l-5.111-7.588L103.728,78.881l1.239-9.292,5.73-8.207.155-.155v-.155a15.958,15.958,0,0,0-.155-17.809l-5.73-8.208-1.858-9.292h.155c-.02-.116-.136-.194-.155-.31A14.6,14.6,0,0,0,90.565,12.911H90.41l-9.292-1.239-8.207-5.73A15.234,15.234,0,0,0,64.084,3Zm0,10.066a5.518,5.518,0,0,1,3.1.929l8.827,6.349,1.084.774,1.239.155,10.84,1.549h.155a4.394,4.394,0,0,1,4.026,4.026v.31l2.013,11,.155,1.084.774.929,6.349,8.827a6.3,6.3,0,0,1-.155,6.814l-6.968,9.756L95.366,66.8l-1.549,10.84V77.8a4.927,4.927,0,0,1-.774,2.168l-.31.155v.155a4.366,4.366,0,0,1-2.943,1.549h-.31l-11.3,2.013-1.239.155-.929.774-8.827,6.349a6.562,6.562,0,0,1-6.968-.155L52.16,84.766l-.929-.774-1.394-.155L39,82.288h-.155a4.385,4.385,0,0,1-3.407-2.168,4.905,4.905,0,0,1-.619-1.858v-.31L32.8,66.647l-.155-1.239-.774-.929-6.349-8.827a6.561,6.561,0,0,1,.155-6.968l6.194-8.053.774-.929.155-1.394L34.2,27.932c.019-.077.135-.077.155-.155a6.908,6.908,0,0,1,4.955-4.955c.077-.019.077-.135.155-.155l10.375-1.394,1.239-.155,1.084-.774L60.987,14A5.518,5.518,0,0,1,64.084,13.066ZM98.308,88.482,105.9,100.1H93.972l-1.239,3.1-3.407,7.9L78.8,94.986l2.323-1.7,9.756-1.7v.155c.116-.02.193-.136.31-.155A14.722,14.722,0,0,0,98.308,88.482Zm-68.448.155A14.126,14.126,0,0,0,37.6,92.2h.155L47.2,93.438l2.168,1.7-10.53,15.95-3.407-7.9L34.2,100.1H22.272Z" transform="translate(-3.844 -3)" fill="#fff"/>
</svg>
