<svg xmlns="http://www.w3.org/2000/svg" width="38.685" height="52.224" viewBox="0 0 38.685 52.224">
  <path id="icons8_inspection" d="M24.342,0a5.832,5.832,0,0,0-5.8,5.8H10.8a5.832,5.832,0,0,0-5.8,5.8V46.422a5.832,5.832,0,0,0,5.8,5.8H37.882a5.832,5.832,0,0,0,5.8-5.8V11.605a5.832,5.832,0,0,0-5.8-5.8H30.145A5.832,5.832,0,0,0,24.342,0Zm0,3.868A1.934,1.934,0,1,1,22.408,5.8,1.906,1.906,0,0,1,24.342,3.868ZM10.8,9.671h3.868A3.867,3.867,0,0,0,18.54,13.54H30.145a3.867,3.867,0,0,0,3.868-3.868h3.868a1.9,1.9,0,0,1,1.934,1.934V46.422a1.9,1.9,0,0,1-1.934,1.934H10.8a1.9,1.9,0,0,1-1.934-1.934V11.605A1.9,1.9,0,0,1,10.8,9.671ZM33.976,23.192a1.934,1.934,0,0,0-1.33.586L22.408,34.015,17.973,29.58a1.934,1.934,0,1,0-2.735,2.735l5.8,5.8a1.934,1.934,0,0,0,2.735,0L35.381,26.513a1.934,1.934,0,0,0-1.405-3.321Z" transform="translate(-5)" fill="#00aeef"/>
</svg>
